<svg width="100" height="50" viewBox="0 0 1500 1500" fill="none" xmlns="http://www.w3.org/2000/svg">
<g clip-path="url(#clip0_4_1664)">
<path d="M611.825 1044.61C605.147 1046.96 597.978 1047.54 591.007 1046.32C584.037 1045.09 577.499 1042.08 572.026 1037.59C558.086 1025.89 553.716 1006.6 550.16 988.744L539.641 935.926L561.662 951.096C577.499 962.006 593.692 973.266 604.657 989.068C615.622 1004.87 620.409 1026.44 611.598 1043.54" fill="#E6E6E6"/>
<path d="M609.943 1108.56C612.171 1092.31 614.463 1075.86 612.9 1059.44C611.511 1044.86 607.065 1030.62 598.014 1018.94C593.209 1012.76 587.363 1007.46 580.738 1003.28C579.01 1002.19 577.42 1004.93 579.141 1006.02C590.604 1013.26 599.47 1023.97 604.461 1036.58C609.974 1050.61 610.859 1065.9 609.909 1080.81C609.335 1089.82 608.117 1098.77 606.89 1107.71C606.794 1108.12 606.854 1108.54 607.059 1108.91C607.264 1109.27 607.599 1109.54 607.996 1109.66C608.4 1109.77 608.832 1109.72 609.196 1109.51C609.561 1109.3 609.829 1108.96 609.943 1108.56Z" fill="#F2F2F2"/>
<path d="M588.474 1079.81C585.611 1084.17 581.674 1087.71 577.044 1090.1C572.414 1092.49 567.247 1093.65 562.04 1093.46C548.658 1092.83 537.502 1083.48 527.459 1074.61L497.755 1048.37L517.414 1047.43C531.552 1046.75 546.054 1046.12 559.52 1050.48C572.986 1054.85 585.404 1065.34 587.867 1079.29" fill="#E6E6E6"/>
<path d="M616.241 1117.89C605.513 1098.9 593.07 1077.79 570.836 1071.05C564.654 1069.18 558.171 1068.51 551.738 1069.07C549.71 1069.25 550.216 1072.38 552.24 1072.2C563.024 1071.31 573.788 1074.16 582.718 1080.27C591.312 1086.12 598.003 1094.26 603.666 1102.89C607.135 1108.17 610.242 1113.68 613.35 1119.18C614.343 1120.94 617.246 1119.67 616.241 1117.89V1117.89Z" fill="#F2F2F2"/>
<path d="M903.779 737.436L669.894 931.38C666.951 933.814 663.163 934.982 659.361 934.625C655.559 934.269 652.054 932.419 649.614 929.48L551.02 810.461C548.587 807.517 547.42 803.727 547.776 799.923C548.132 796.119 549.981 792.612 552.918 790.17L786.803 596.227C789.746 593.793 793.534 592.625 797.336 592.981C801.138 593.337 804.644 595.188 807.084 598.127L905.677 717.146C908.111 720.09 909.277 723.88 908.922 727.684C908.566 731.488 906.716 734.995 903.779 737.436Z" fill="#CCCCCC"/>
<path d="M894.406 731.596L665.898 921.081C664.382 922.335 662.43 922.937 660.472 922.753C658.513 922.57 656.707 921.617 655.45 920.103L561.313 806.463C560.059 804.946 559.458 802.994 559.642 801.034C559.825 799.075 560.778 797.268 562.291 796.01L790.799 606.525C792.315 605.271 794.267 604.67 796.225 604.853C798.184 605.037 799.99 605.99 801.247 607.504L895.384 721.144C896.638 722.66 897.239 724.613 897.055 726.572C896.872 728.532 895.919 730.339 894.406 731.596Z" fill="white"/>
<path d="M904.94 771.261L857.941 766.86L891.58 740.372L909.7 762.247C910.407 763.082 910.845 764.11 910.957 765.199C911.07 766.287 910.851 767.383 910.33 768.345C909.989 768.998 909.521 769.577 908.955 770.049C908.4 770.507 907.758 770.85 907.069 771.058C906.38 771.266 905.656 771.335 904.94 771.261Z" fill="#CCCCCC"/>
<path d="M810.559 687.036L694.961 782.893C694.255 783.478 693.44 783.919 692.564 784.189C691.688 784.46 690.767 784.555 689.854 784.47C688.941 784.384 688.054 784.12 687.243 783.691C686.432 783.262 685.713 782.678 685.128 781.972C684.543 781.265 684.102 780.451 683.832 779.574C683.562 778.697 683.466 777.776 683.552 776.862C683.637 775.949 683.902 775.061 684.33 774.25C684.759 773.438 685.343 772.719 686.049 772.134L801.647 676.277C802.353 675.692 803.167 675.251 804.044 674.98C804.92 674.71 805.841 674.614 806.754 674.7C807.667 674.785 808.554 675.05 809.365 675.479C810.176 675.907 810.895 676.492 811.48 677.198C812.065 677.904 812.505 678.719 812.776 679.596C813.046 680.473 813.141 681.394 813.056 682.308C812.971 683.221 812.706 684.109 812.278 684.92C811.849 685.731 811.265 686.45 810.559 687.036Z" fill="#CCCCCC"/>
<path d="M753.984 695.383L676.022 760.03C674.596 761.213 672.759 761.78 670.915 761.607C669.071 761.435 667.371 760.536 666.189 759.109C665.007 757.683 664.44 755.845 664.613 754C664.786 752.155 665.684 750.454 667.11 749.272L745.071 684.624C746.497 683.441 748.334 682.874 750.178 683.047C752.022 683.219 753.722 684.118 754.904 685.545C756.086 686.971 756.653 688.809 756.48 690.654C756.308 692.499 755.41 694.2 753.984 695.383Z" fill="#CCCCCC"/>
<path d="M633.183 827.597C645.235 827.597 655.005 817.821 655.005 805.763C655.005 793.704 645.235 783.929 633.183 783.929C621.13 783.929 611.36 793.704 611.36 805.763C611.36 817.821 621.13 827.597 633.183 827.597Z" fill="#C09AEC"/>
<path d="M806.773 761.997C810.63 761.997 813.757 758.869 813.757 755.01C813.757 751.151 810.63 748.023 806.773 748.023C802.917 748.023 799.79 751.151 799.79 755.01C799.79 758.869 802.917 761.997 806.773 761.997Z" fill="#E6E6E6"/>
<path d="M825.592 746.392C829.449 746.392 832.575 743.264 832.575 739.406C832.575 735.547 829.449 732.419 825.592 732.419C821.735 732.419 818.608 735.547 818.608 739.406C818.608 743.264 821.735 746.392 825.592 746.392Z" fill="#E6E6E6"/>
<path d="M844.41 730.788C848.267 730.788 851.393 727.66 851.393 723.801C851.393 719.942 848.267 716.814 844.41 716.814C840.553 716.814 837.427 719.942 837.427 723.801C837.427 727.66 840.553 730.788 844.41 730.788Z" fill="#E6E6E6"/>
<path d="M733.105 1105.73L749.137 1105.72L756.764 1043.85L733.103 1043.86L733.105 1105.73Z" fill="#FFB8B8"/>
<path d="M729.016 1100.49L760.589 1100.49H760.59C763.232 1100.49 765.849 1101.01 768.29 1102.02C770.731 1103.03 772.949 1104.51 774.818 1106.38C776.686 1108.25 778.168 1110.47 779.179 1112.91C780.19 1115.36 780.711 1117.97 780.711 1120.62V1121.27L729.017 1121.27L729.016 1100.49Z" fill="#3F39B5"/>
<path d="M675.567 1105.73L691.599 1105.72L699.225 1043.85L675.564 1043.86L675.567 1105.73Z" fill="#FFB8B8"/>
<path d="M671.478 1100.49L703.05 1100.49H703.052C705.694 1100.49 708.31 1101.01 710.751 1102.02C713.193 1103.03 715.411 1104.51 717.279 1106.38C719.147 1108.25 720.63 1110.47 721.641 1112.91C722.652 1115.36 723.172 1117.97 723.172 1120.62V1121.27L671.479 1121.27L671.478 1100.49Z" fill="#3F39B5"/>
<path d="M691.655 1086.8H691.652L678.019 1086.79C676.493 1086.8 675.026 1086.21 673.929 1085.15C672.831 1084.09 672.19 1082.64 672.141 1081.12L671.711 1069.18C668.265 973.75 664.701 875.069 686.773 830.715L686.946 830.366L760.02 827.72L774.69 962.365C775.316 968.108 775.087 973.912 774.01 979.588L754.617 1081.83C754.354 1083.22 753.603 1084.47 752.499 1085.34C751.396 1086.22 750.014 1086.68 748.605 1086.62L733.291 1086.12C732.489 1086.09 731.702 1085.9 730.979 1085.55C730.255 1085.2 729.61 1084.71 729.083 1084.1C728.556 1083.5 728.159 1082.79 727.915 1082.03C727.671 1081.26 727.586 1080.45 727.666 1079.66L739.695 985.088C740.105 981.007 739.735 976.884 738.604 972.941L723.643 920.615C723.519 920.182 723.251 919.805 722.882 919.547C722.514 919.289 722.068 919.165 721.619 919.197C721.171 919.228 720.746 919.413 720.418 919.72C720.089 920.028 719.876 920.439 719.814 920.884L697.483 1081.72C697.283 1083.12 696.584 1084.41 695.514 1085.34C694.444 1086.27 693.074 1086.79 691.655 1086.8Z" fill="#3F39B5"/>
<path d="M700.394 693.107C718.132 693.107 732.512 678.719 732.512 660.972C732.512 643.225 718.132 628.837 700.394 628.837C682.655 628.837 668.275 643.225 668.275 660.972C668.275 678.719 682.655 693.107 700.394 693.107Z" fill="#FFB8B8"/>
<path d="M756.594 837.66H690.133C689.289 837.66 688.454 837.478 687.686 837.126C686.918 836.775 686.234 836.262 685.682 835.623C685.129 834.983 684.721 834.233 684.484 833.421C684.247 832.61 684.188 831.757 684.31 830.921L687.593 808.422L668.313 755.364C666.322 749.886 665.583 744.032 666.148 738.231C666.714 732.431 668.57 726.83 671.581 721.841C674.591 716.851 678.681 712.599 683.548 709.397C688.415 706.195 693.937 704.123 699.709 703.335C707.932 702.187 716.307 703.704 723.607 707.663C730.906 711.622 736.747 717.815 740.274 725.335L744.51 734.351L762.38 830.699C762.538 831.548 762.506 832.422 762.288 833.258C762.07 834.095 761.671 834.872 761.119 835.537C760.567 836.201 759.875 836.736 759.093 837.103C758.311 837.47 757.458 837.66 756.594 837.66H756.594Z" fill="#C09AEC"/>
<path d="M616.297 894.097C618.297 893.632 620.171 892.734 621.788 891.466C623.404 890.198 624.722 888.591 625.65 886.758C626.578 884.925 627.094 882.911 627.16 880.857C627.225 878.803 626.841 876.76 626.032 874.871L677.819 757.81L648.194 750.344L606.604 867.759C603.523 869.329 601.124 871.975 599.862 875.196C598.6 878.417 598.563 881.989 599.758 885.235C600.953 888.482 603.296 891.177 606.344 892.81C609.393 894.443 612.934 894.901 616.297 894.097H616.297Z" fill="#FFB8B8"/>
<path d="M670.809 778.746L641.996 765.252C641.176 764.868 640.449 764.312 639.863 763.621C639.278 762.931 638.848 762.122 638.603 761.25C638.358 760.378 638.303 759.464 638.444 758.569C638.584 757.674 638.915 756.82 639.414 756.065L656.925 729.607C658.914 725.424 662.479 722.201 666.839 720.643C671.198 719.085 675.998 719.32 680.185 721.296C684.372 723.272 687.605 726.828 689.177 731.184C690.748 735.541 690.53 740.344 688.569 744.539L679.514 774.845C679.254 775.712 678.811 776.514 678.214 777.194C677.617 777.875 676.88 778.419 676.054 778.789C675.228 779.16 674.332 779.347 673.427 779.34C672.522 779.332 671.629 779.13 670.809 778.746H670.809Z" fill="#C09AEC"/>
<path d="M832.329 592.863C832.955 594.82 833.143 596.891 832.883 598.929C832.622 600.967 831.917 602.923 830.819 604.66C829.721 606.396 828.255 607.87 826.526 608.979C824.797 610.087 822.845 610.802 820.81 611.075L746.835 715.527L725.255 693.891L804.755 598.021C804.525 594.57 805.568 591.153 807.687 588.419C809.806 585.686 812.853 583.825 816.252 583.189C819.651 582.553 823.165 583.187 826.128 584.97C829.091 586.753 831.297 589.561 832.329 592.863Z" fill="#FFB8B8"/>
<path d="M763.942 703.266C764.047 704.166 763.958 705.077 763.679 705.939C763.4 706.801 762.939 707.592 762.327 708.259L740.947 731.56C738.35 735.397 734.339 738.047 729.793 738.929C725.246 739.812 720.535 738.854 716.693 736.267C712.851 733.68 710.191 729.674 709.297 725.127C708.403 720.581 709.347 715.865 711.922 712.014L725.669 683.417C726.062 682.6 726.625 681.878 727.322 681.3C728.018 680.721 728.831 680.3 729.705 680.064C730.579 679.828 731.493 679.783 732.386 679.933C733.279 680.082 734.129 680.423 734.878 680.931L761.218 698.781C761.968 699.288 762.599 699.952 763.069 700.726C763.539 701.5 763.837 702.367 763.942 703.266Z" fill="#C09AEC"/>
<path d="M742.595 647.521C742.575 644.613 742.171 641.72 741.394 638.918C736.219 619.786 717.116 608.304 697.946 611.185C694.217 610.116 690.357 609.575 686.479 609.579C676.612 609.579 667.071 613.109 659.577 619.531C652.084 625.954 647.133 634.845 645.619 644.6L630.133 744.34H713.826L727.339 657.301C727.841 654.066 727.959 650.784 727.691 647.521H742.595Z" fill="#3F39B5"/>
<path d="M846.616 1122H570.692C570.346 1122 570.013 1121.86 569.768 1121.62C569.523 1121.37 569.385 1121.04 569.385 1120.69C569.385 1120.34 569.523 1120.01 569.768 1119.77C570.013 1119.52 570.346 1119.38 570.692 1119.38H846.616C846.962 1119.38 847.295 1119.52 847.54 1119.77C847.785 1120.01 847.923 1120.34 847.923 1120.69C847.923 1121.04 847.785 1121.37 847.54 1121.62C847.295 1121.86 846.962 1122 846.616 1122Z" fill="#CCCCCC"/>
<path d="M1124.59 479.617C1126.51 479.433 1128.44 479.67 1130.25 480.313C1132.06 480.956 1133.71 481.989 1135.08 483.339C1136.45 484.688 1137.51 486.322 1138.18 488.125C1138.85 489.927 1139.11 491.855 1138.96 493.772L1181.73 512.606L1161.33 525.782L1123.84 505.877C1120.64 505.404 1117.72 503.771 1115.64 501.29C1113.56 498.808 1112.46 495.65 1112.56 492.413C1112.65 489.176 1113.93 486.085 1116.14 483.727C1118.36 481.368 1121.37 479.906 1124.59 479.617V479.617Z" fill="#FFB8B8"/>
<path d="M1297.12 456.123C1314.86 456.123 1329.24 441.736 1329.24 423.988C1329.24 406.241 1314.86 391.854 1297.12 391.854C1279.38 391.854 1265 406.241 1265 423.988C1265 441.736 1279.38 456.123 1297.12 456.123Z" fill="#FFB8B8"/>
<path d="M1238.99 882.193L1222.96 882.192L1215.33 820.322L1238.99 820.324L1238.99 882.193Z" fill="#FFB8B8"/>
<path d="M1243.08 897.741L1191.38 897.739V897.085C1191.38 894.441 1191.9 891.824 1192.91 889.381C1193.93 886.939 1195.41 884.72 1197.28 882.85C1199.14 880.981 1201.36 879.498 1203.8 878.487C1206.25 877.475 1208.86 876.954 1211.5 876.954H1211.51L1243.08 876.956L1243.08 897.741Z" fill="#3F39B5"/>
<path d="M1305.68 882.193L1289.65 882.192L1282.02 820.322L1305.68 820.324L1305.68 882.193Z" fill="#FFB8B8"/>
<path d="M1309.77 897.741L1258.08 897.739V897.085C1258.08 894.441 1258.6 891.824 1259.61 889.381C1260.62 886.939 1262.1 884.72 1263.97 882.85C1265.84 880.981 1268.05 879.498 1270.5 878.487C1272.94 877.475 1275.55 876.954 1278.2 876.954H1278.2L1309.77 876.956L1309.77 897.741Z" fill="#3F39B5"/>
<path d="M1304.92 869.015C1304.68 869.015 1304.44 869 1304.2 868.971L1280.74 866.08C1279.36 865.913 1278.09 865.265 1277.15 864.251C1276.2 863.238 1275.65 861.923 1275.58 860.539L1268.74 706.462C1268.72 706.025 1268.55 705.608 1268.26 705.278C1267.97 704.948 1267.58 704.723 1267.15 704.64C1266.72 704.557 1266.28 704.62 1265.89 704.819C1265.5 705.018 1265.19 705.341 1265 705.738L1247.43 764.332L1243.82 858.45C1243.79 859.262 1243.59 860.058 1243.23 860.789C1242.88 861.52 1242.38 862.17 1241.76 862.698C1241.14 863.226 1240.43 863.62 1239.65 863.856C1238.87 864.092 1238.05 864.165 1237.25 864.069L1216.93 861.676C1215.47 861.51 1214.13 860.806 1213.17 859.703C1212.21 858.6 1211.7 857.178 1211.73 855.715L1213.46 767.121L1227.22 628.053L1227.84 628.076L1311.56 631.305L1310.81 863.147C1310.8 864.705 1310.18 866.198 1309.08 867.297C1307.97 868.397 1306.48 869.015 1304.92 869.015H1304.92Z" fill="#3F39B5"/>
<path d="M1308.39 644.013C1308.34 644.013 1308.29 644.013 1308.23 644.011L1223.92 641.801C1223.09 641.779 1222.28 641.584 1221.53 641.227C1220.78 640.87 1220.12 640.36 1219.59 639.73C1219.05 639.1 1218.65 638.364 1218.42 637.57C1218.19 636.776 1218.13 635.942 1218.24 635.123L1234.44 515.812C1235.45 507.756 1238.15 500.004 1242.36 493.062C1246.57 486.12 1252.2 480.144 1258.87 475.525C1264.74 471.481 1271.41 468.742 1278.42 467.49C1285.44 466.238 1292.64 466.503 1299.55 468.268C1328.98 475.729 1346.64 507.348 1338.91 538.751L1314.1 639.533C1313.78 640.809 1313.05 641.941 1312.01 642.752C1310.98 643.564 1309.7 644.007 1308.39 644.013Z" fill="#3F3D56"/>
<path d="M1197.77 549.269C1192.21 549.276 1186.78 547.66 1182.12 544.619L1132.95 512.342C1132.23 511.869 1131.63 511.245 1131.17 510.512C1130.72 509.779 1130.43 508.956 1130.33 508.1C1130.24 507.245 1130.32 506.378 1130.6 505.561C1130.87 504.744 1131.32 503.996 1131.91 503.371L1139.32 495.546C1140.12 494.689 1141.17 494.094 1142.32 493.841C1143.47 493.587 1144.67 493.686 1145.76 494.124L1200.69 516.007L1251.57 479.653C1253.95 477.953 1256.66 476.766 1259.52 476.167C1262.38 475.567 1265.33 475.568 1268.19 476.17C1271.05 476.772 1273.76 477.962 1276.14 479.664C1278.52 481.365 1280.51 483.543 1282.01 486.057C1283.5 488.572 1284.46 491.369 1284.81 494.272C1285.17 497.175 1284.92 500.121 1284.08 502.923C1283.24 505.724 1281.83 508.321 1279.94 510.549C1278.04 512.777 1275.71 514.587 1273.08 515.865L1210.19 546.425C1206.32 548.302 1202.07 549.274 1197.77 549.269Z" fill="#3F3D56"/>
<path d="M1308.25 454.719C1313.73 456.013 1320.34 457.007 1324.25 452.959C1324.95 452.195 1325.57 451.367 1326.1 450.487L1331.22 442.666C1335.15 436.675 1339.14 430.528 1340.8 423.562C1341.75 419.559 1341.9 415.406 1341.24 411.345C1340.57 407.284 1339.11 403.395 1336.93 399.904C1334.75 396.414 1331.9 393.391 1328.55 391.013C1325.19 388.634 1321.39 386.945 1317.38 386.046C1309.74 384.334 1302.26 381.388 1294.44 381.925C1286.63 382.462 1277.46 382.286 1270.9 378C1271.31 379.911 1273.52 388.353 1273.52 388.353C1273.52 388.353 1263.66 397.406 1261.68 399.663C1264.27 398.514 1267.09 397.975 1269.92 398.087C1272.75 398.198 1275.51 398.957 1278.01 400.305C1280.5 401.654 1282.64 403.555 1284.29 405.864C1285.93 408.173 1287.02 410.828 1287.47 413.624C1288.03 417.06 1287.7 420.87 1289.74 423.69C1291.68 426.372 1295.16 427.311 1298.09 428.86C1302.31 431.263 1305.53 435.095 1307.17 439.664C1308.81 444.232 1308.77 449.238 1307.04 453.777L1308.25 454.719Z" fill="#3F39B5"/>
<path d="M1269.68 655.522H1003.45C1000.1 655.518 996.896 654.186 994.53 651.818C992.163 649.451 990.832 646.24 990.829 642.892V507.412C990.832 504.064 992.163 500.854 994.53 498.486C996.896 496.118 1000.1 494.786 1003.45 494.783H1269.68C1273.03 494.786 1276.24 496.118 1278.61 498.486C1280.97 500.854 1282.3 504.064 1282.31 507.412V642.892C1282.3 646.24 1280.97 649.451 1278.61 651.818C1276.24 654.186 1273.03 655.518 1269.68 655.522Z" fill="#CCCCCC"/>
<path d="M1266.62 646.337H1006.51C1004.79 646.335 1003.13 645.649 1001.92 644.429C1000.7 643.209 1000.01 641.555 1000.01 639.83V510.474C1000.01 508.749 1000.7 507.095 1001.92 505.875C1003.13 504.656 1004.79 503.97 1006.51 503.968H1266.62C1268.35 503.97 1270 504.656 1271.22 505.875C1272.44 507.095 1273.12 508.749 1273.13 510.474V639.83C1273.12 641.555 1272.44 643.209 1271.22 644.429C1270 645.649 1268.35 646.335 1266.62 646.337Z" fill="white"/>
<path d="M1251.56 678.996L1222.31 649.728L1259.81 650.677V675.577C1259.82 676.535 1259.54 677.475 1259.01 678.272C1258.48 679.069 1257.72 679.687 1256.83 680.044C1256.23 680.294 1255.59 680.423 1254.95 680.425C1254.32 680.423 1253.69 680.295 1253.11 680.05C1252.53 679.805 1252 679.447 1251.56 678.996Z" fill="#CCCCCC"/>
<path d="M1234.95 569.351H1103.37C1101.74 569.351 1100.19 568.706 1099.04 567.558C1097.89 566.409 1097.25 564.852 1097.25 563.228C1097.25 561.604 1097.89 560.046 1099.04 558.898C1100.19 557.75 1101.74 557.104 1103.37 557.104H1234.95C1236.58 557.104 1238.13 557.75 1239.28 558.898C1240.43 560.046 1241.07 561.604 1241.07 563.228C1241.07 564.852 1240.43 566.409 1239.28 567.558C1238.13 568.706 1236.58 569.351 1234.95 569.351Z" fill="#CCCCCC"/>
<path d="M1192.11 543.327H1103.37C1102.56 543.328 1101.77 543.171 1101.02 542.863C1100.28 542.556 1099.6 542.105 1099.03 541.537C1098.46 540.968 1098.01 540.292 1097.7 539.549C1097.4 538.805 1097.24 538.008 1097.24 537.203C1097.24 536.399 1097.4 535.602 1097.7 534.858C1098.01 534.115 1098.46 533.439 1099.03 532.87C1099.6 532.302 1100.28 531.851 1101.02 531.544C1101.77 531.236 1102.56 531.079 1103.37 531.08H1192.11C1193.73 531.08 1195.29 531.725 1196.44 532.874C1197.59 534.022 1198.23 535.579 1198.23 537.203C1198.23 538.827 1197.59 540.385 1196.44 541.533C1195.29 542.682 1193.73 543.327 1192.11 543.327Z" fill="#CCCCCC"/>
<path d="M1048.9 569.351C1059.46 569.351 1068.02 560.784 1068.02 550.216C1068.02 539.647 1059.46 531.08 1048.9 531.08C1038.33 531.08 1029.77 539.647 1029.77 550.216C1029.77 560.784 1038.33 569.351 1048.9 569.351Z" fill="#C09AEC"/>
<path d="M1194.4 619.224C1197.78 619.224 1200.52 616.483 1200.52 613.101C1200.52 609.719 1197.78 606.977 1194.4 606.977C1191.02 606.977 1188.28 609.719 1188.28 613.101C1188.28 616.483 1191.02 619.224 1194.4 619.224Z" fill="#E6E6E6"/>
<path d="M1215.82 619.224C1219.2 619.224 1221.94 616.483 1221.94 613.101C1221.94 609.719 1219.2 606.977 1215.82 606.977C1212.44 606.977 1209.7 609.719 1209.7 613.101C1209.7 616.483 1212.44 619.224 1215.82 619.224Z" fill="#E6E6E6"/>
<path d="M1237.24 619.224C1240.62 619.224 1243.37 616.483 1243.37 613.101C1243.37 609.719 1240.62 606.977 1237.24 606.977C1233.86 606.977 1231.12 609.719 1231.12 613.101C1231.12 616.483 1233.86 619.224 1237.24 619.224Z" fill="#E6E6E6"/>
<path d="M1265.56 639.41C1265.77 637.498 1266.4 635.656 1267.4 634.013C1268.4 632.371 1269.75 630.967 1271.35 629.902C1272.95 628.837 1274.76 628.135 1276.66 627.848C1278.57 627.56 1280.51 627.693 1282.35 628.237L1309.53 590.204L1318.24 612.881L1291.1 645.521C1289.98 648.56 1287.79 651.082 1284.93 652.611C1282.08 654.139 1278.77 654.567 1275.62 653.814C1272.47 653.061 1269.71 651.179 1267.85 648.524C1266 645.869 1265.18 642.626 1265.56 639.41H1265.56Z" fill="#FFB8B8"/>
<path d="M1296.69 637.358C1296.27 637.393 1295.84 637.383 1295.41 637.326C1294.56 637.211 1293.74 636.911 1293.02 636.445C1292.29 635.979 1291.68 635.36 1291.22 634.63L1285.48 625.513C1284.84 624.518 1284.53 623.355 1284.57 622.177C1284.61 620.999 1285 619.859 1285.7 618.908L1320.48 571.083L1297.87 512.762C1295.85 507.631 1295.93 501.911 1298.09 496.835C1300.24 491.76 1304.3 487.735 1309.4 485.628C1312.28 484.42 1315.39 483.865 1318.5 484.004C1321.62 484.142 1324.67 484.97 1327.43 486.429C1330.19 487.887 1332.6 489.939 1334.47 492.437C1336.34 494.936 1337.64 497.818 1338.26 500.878L1352.29 569.401C1353.27 574.233 1352.98 579.236 1351.46 583.924C1349.93 588.613 1347.22 592.828 1343.59 596.162L1300.17 635.839C1299.21 636.715 1297.99 637.25 1296.69 637.358Z" fill="#3F3D56"/>
<path d="M1369.69 900.888H1093.77C1093.42 900.888 1093.09 900.75 1092.84 900.505C1092.6 900.259 1092.46 899.927 1092.46 899.58C1092.46 899.233 1092.6 898.9 1092.84 898.654C1093.09 898.409 1093.42 898.271 1093.77 898.271H1369.69C1370.04 898.271 1370.37 898.409 1370.62 898.654C1370.86 898.9 1371 899.233 1371 899.58C1371 899.927 1370.86 900.259 1370.62 900.505C1370.37 900.75 1370.04 900.888 1369.69 900.888Z" fill="#CCCCCC"/>
<path d="M465.577 575.269H199.344C195.998 575.265 192.789 573.933 190.423 571.566C188.056 569.198 186.725 565.988 186.721 562.639V427.159C186.725 423.811 188.056 420.601 190.423 418.233C192.789 415.865 195.998 414.534 199.344 414.53H465.577C468.923 414.534 472.132 415.866 474.498 418.233C476.865 420.601 478.196 423.811 478.2 427.159V562.639C478.196 565.988 476.865 569.198 474.498 571.566C472.132 573.933 468.923 575.265 465.577 575.269Z" fill="#CCCCCC"/>
<path d="M462.517 566.084H202.405C200.681 566.082 199.028 565.396 197.809 564.176C196.59 562.956 195.904 561.303 195.902 559.578V430.221C195.904 428.496 196.59 426.843 197.809 425.623C199.028 424.403 200.681 423.717 202.405 423.715H462.517C464.241 423.717 465.894 424.403 467.113 425.623C468.332 426.843 469.018 428.496 469.02 430.221V559.578C469.018 561.303 468.332 562.956 467.113 564.176C465.894 565.396 464.241 566.082 462.517 566.084Z" fill="white"/>
<path d="M447.453 598.743L418.199 569.475L455.704 570.424V595.324C455.714 596.283 455.435 597.222 454.902 598.019C454.37 598.816 453.609 599.434 452.72 599.792C452.124 600.041 451.485 600.17 450.84 600.172C450.209 600.17 449.585 600.043 449.003 599.798C448.422 599.552 447.895 599.194 447.453 598.743Z" fill="#CCCCCC"/>
<path d="M430.847 489.099H299.26C297.637 489.099 296.081 488.453 294.933 487.305C293.785 486.157 293.14 484.599 293.14 482.975C293.14 481.351 293.785 479.794 294.933 478.645C296.081 477.497 297.637 476.852 299.26 476.852H430.847C432.47 476.852 434.026 477.497 435.174 478.645C436.322 479.794 436.967 481.351 436.967 482.975C436.967 484.599 436.322 486.157 435.174 487.305C434.026 488.453 432.47 489.099 430.847 489.099Z" fill="#CCCCCC"/>
<path d="M388.005 463.074H299.26C297.637 463.074 296.081 462.429 294.933 461.281C293.785 460.132 293.14 458.575 293.14 456.951C293.14 455.327 293.785 453.769 294.933 452.621C296.081 451.473 297.637 450.827 299.26 450.827H388.005C389.628 450.827 391.184 451.473 392.332 452.621C393.48 453.769 394.125 455.327 394.125 456.951C394.125 458.575 393.48 460.132 392.332 461.281C391.184 462.429 389.628 463.074 388.005 463.074Z" fill="#CCCCCC"/>
<path d="M244.789 489.099C255.352 489.099 263.915 480.531 263.915 469.963C263.915 459.395 255.352 450.827 244.789 450.827C234.227 450.827 225.664 459.395 225.664 469.963C225.664 480.531 234.227 489.099 244.789 489.099Z" fill="#C09AEC"/>
<path d="M390.296 538.972C393.676 538.972 396.416 536.23 396.416 532.848C396.416 529.466 393.676 526.725 390.296 526.725C386.915 526.725 384.175 529.466 384.175 532.848C384.175 536.23 386.915 538.972 390.296 538.972Z" fill="#E6E6E6"/>
<path d="M411.716 538.972C415.097 538.972 417.837 536.23 417.837 532.848C417.837 529.466 415.097 526.725 411.716 526.725C408.336 526.725 405.596 529.466 405.596 532.848C405.596 536.23 408.336 538.972 411.716 538.972Z" fill="#E6E6E6"/>
<path d="M433.137 538.972C436.518 538.972 439.258 536.23 439.258 532.848C439.258 529.466 436.518 526.725 433.137 526.725C429.757 526.725 427.017 529.466 427.017 532.848C427.017 536.23 429.757 538.972 433.137 538.972Z" fill="#E6E6E6"/>
<path d="M454.536 401.513C452.727 402.164 451.083 403.205 449.719 404.561C448.356 405.917 447.306 407.555 446.644 409.361C445.982 411.167 445.724 413.096 445.888 415.012C446.051 416.929 446.633 418.786 447.592 420.453L416.965 455.766L441.038 458.956L466.431 424.934C469.124 423.137 471.064 420.414 471.884 417.281C472.704 414.149 472.347 410.824 470.881 407.937C469.415 405.05 466.941 402.802 463.928 401.618C460.916 400.434 457.574 400.396 454.536 401.513Z" fill="#FFB8B8"/>
<path d="M250.044 415.65C250.697 417.459 250.946 419.39 250.773 421.305C250.6 423.221 250.009 425.075 249.042 426.738C248.076 428.4 246.756 429.83 245.177 430.927C243.598 432.025 241.798 432.762 239.903 433.088L232.282 479.216L214.461 462.711L224.431 421.438C224.095 418.217 224.951 414.985 226.838 412.354C228.725 409.723 231.511 407.875 234.668 407.162C237.825 406.449 241.134 406.919 243.968 408.483C246.802 410.048 248.964 412.598 250.044 415.65V415.65Z" fill="#FFB8B8"/>
<path d="M297.906 882.193L313.939 882.192L321.565 820.322L297.904 820.324L297.906 882.193Z" fill="#FFB8B8"/>
<path d="M293.817 876.956L325.39 876.954H325.391C328.033 876.954 330.65 877.475 333.091 878.487C335.532 879.498 337.75 880.981 339.618 882.85C341.487 884.72 342.969 886.939 343.98 889.381C344.991 891.824 345.512 894.441 345.512 897.085V897.739L293.818 897.741L293.817 876.956Z" fill="#3F39B5"/>
<path d="M215.522 882.193L231.554 882.192L239.18 820.322L215.519 820.324L215.522 882.193Z" fill="#FFB8B8"/>
<path d="M211.432 876.956L243.005 876.954H243.006C245.648 876.954 248.265 877.475 250.706 878.487C253.147 879.498 255.365 880.981 257.234 882.85C259.102 884.72 260.584 886.939 261.595 889.381C262.606 891.824 263.127 894.441 263.127 897.085V897.739L211.433 897.741L211.432 876.956Z" fill="#3F39B5"/>
<path d="M294.56 459.783C312.298 459.783 326.678 445.396 326.678 427.648C326.678 409.901 312.298 395.514 294.56 395.514C276.821 395.514 262.441 409.901 262.441 427.648C262.441 445.396 276.821 459.783 294.56 459.783Z" fill="#FFB8B8"/>
<path d="M290.71 861.64L288.054 692.33C288.047 691.852 287.866 691.392 287.544 691.038C287.222 690.684 286.782 690.459 286.307 690.407C285.831 690.355 285.353 690.479 284.962 690.755C284.571 691.031 284.295 691.44 284.184 691.906L240.65 857.513C240.322 858.838 239.55 860.01 238.462 860.834C237.374 861.658 236.036 862.083 234.673 862.038L210.755 861.015C209.942 860.98 209.145 860.777 208.414 860.418C207.684 860.059 207.035 859.552 206.51 858.93C205.985 858.308 205.595 857.583 205.364 856.803C205.133 856.022 205.066 855.202 205.168 854.394L242.109 641.579L242.185 640.979L345.077 645.849L345.748 645.88L323.684 861.994C323.568 863.473 322.9 864.855 321.813 865.865C320.726 866.874 319.299 867.438 317.816 867.444H296.594C295.049 867.438 293.569 866.827 292.469 865.742C291.369 864.657 290.738 863.185 290.71 861.64Z" fill="#3F39B5"/>
<path d="M371.976 660.191L222.666 647.932C221.765 647.858 220.893 647.577 220.118 647.111C219.343 646.646 218.685 646.007 218.196 645.246C217.708 644.485 217.401 643.621 217.3 642.722C217.199 641.823 217.306 640.913 217.614 640.062L241.127 575.022L242.48 497.825C242.529 495.022 243.134 492.258 244.259 489.691C245.385 487.124 247.008 484.807 249.036 482.873C251.063 480.939 253.454 479.427 256.07 478.424C258.687 477.422 261.476 476.95 264.276 477.034L274.205 468.029H310.584L313.752 472.184L339.065 476.076C343.574 476.788 347.734 478.932 350.932 482.191C354.13 485.45 356.195 489.651 356.824 494.174L378.289 653.538C378.401 654.37 378.333 655.215 378.092 656.019C377.851 656.822 377.441 657.564 376.889 658.196C376.338 658.828 375.658 659.335 374.894 659.682C374.131 660.03 373.303 660.21 372.465 660.212C372.302 660.212 372.139 660.205 371.976 660.191Z" fill="#3F39B5"/>
<path d="M342.885 483.559L406.548 464.897L435.36 426.945C436.153 425.899 437.273 425.149 438.541 424.814C439.809 424.478 441.153 424.576 442.359 425.092L460.348 432.785C461.115 433.113 461.804 433.6 462.368 434.215C462.932 434.829 463.36 435.557 463.622 436.349C463.884 437.141 463.975 437.98 463.888 438.81C463.801 439.64 463.539 440.442 463.119 441.163L441.587 478.132C438.081 484.179 432.744 488.955 426.348 491.769L351.468 524.886L342.885 483.559Z" fill="#3F39B5"/>
<path d="M220.744 511.476C216.94 508.733 213.906 505.056 211.935 500.8C209.964 496.543 209.123 491.849 209.493 487.173L212.287 450.136C212.402 448.657 213.07 447.275 214.158 446.266C215.245 445.258 216.672 444.695 218.155 444.692H218.207L239.303 444.88C240.167 444.888 241.019 445.086 241.798 445.46C242.577 445.835 243.264 446.376 243.81 447.046C244.357 447.716 244.749 448.499 244.959 449.337C245.169 450.176 245.191 451.051 245.025 451.899L241.111 471.88L269.044 483.688L245.522 529.472L220.744 511.476Z" fill="#3F39B5"/>
<path d="M313.244 389.116C313.244 389.116 279.656 371.021 261.348 392.377C243.041 413.733 268.323 447.128 268.323 447.128L304.348 451.674C304.348 451.674 305.655 427.173 314.233 427.649C322.81 428.125 349.448 397.208 313.244 389.116Z" fill="#3F39B5"/>
<path d="M407.231 899.58H131.308C130.961 899.58 130.628 899.442 130.383 899.196C130.138 898.951 130 898.618 130 898.271C130 897.924 130.138 897.591 130.383 897.346C130.628 897.101 130.961 896.963 131.308 896.963H407.231C407.578 896.963 407.91 897.101 408.155 897.346C408.401 897.591 408.538 897.924 408.538 898.271C408.538 898.618 408.401 898.951 408.155 899.196C407.91 899.442 407.578 899.58 407.231 899.58Z" fill="#CCCCCC"/>
<circle cx="1275" cy="424" r="4" fill="#3F39B5"/>
</g>
<g clip-path="url(#clip1_4_1664)">
<path d="M872.759 638C932.086 638 980.18 635.188 980.18 631.72C980.18 628.251 932.086 625.44 872.759 625.44C813.432 625.44 765.338 628.251 765.338 631.72C765.338 635.188 813.432 638 872.759 638Z" fill="#F2F2F2"/>
<path d="M935.519 438.342H934.299V400.121C934.299 394.254 932.26 388.628 928.632 384.479C925.003 380.331 920.082 378 914.95 378H844.124C838.992 378 834.071 380.331 830.442 384.479C826.813 388.628 824.775 394.254 824.775 400.121V609.802C824.775 615.669 826.813 621.296 830.442 625.444C834.071 629.593 838.992 631.923 844.123 631.923H914.95C920.082 631.923 925.003 629.593 928.632 625.444C932.26 621.296 934.299 615.669 934.299 609.802V465.548H935.519L935.519 438.342Z" fill="#3F3D56"/>
<path d="M930.181 400.275V609.648C930.181 614.03 928.658 618.232 925.948 621.33C923.239 624.428 919.563 626.169 915.731 626.169H844.564C840.732 626.169 837.057 624.428 834.347 621.33C831.637 618.232 830.114 614.03 830.114 609.648V400.275C830.114 395.894 831.637 391.692 834.347 388.594C837.057 385.496 840.732 383.755 844.564 383.755H853.198C852.773 384.947 852.612 386.239 852.727 387.519C852.842 388.799 853.231 390.027 853.859 391.095C854.487 392.163 855.335 393.038 856.328 393.644C857.321 394.249 858.429 394.566 859.554 394.567H900.13C901.256 394.566 902.364 394.249 903.357 393.644C904.35 393.038 905.198 392.163 905.826 391.095C906.453 390.027 906.842 388.799 906.958 387.519C907.073 386.239 906.911 384.947 906.487 383.755H915.731C919.563 383.755 923.239 385.496 925.948 388.594C928.658 391.692 930.181 395.894 930.181 400.275Z" fill="white"/>
<path d="M907.254 490.556C906.781 490.839 906.3 491.106 905.811 491.358C905.365 491.589 904.912 491.805 904.453 492.007C904.285 492.081 904.114 492.154 903.943 492.227C902.592 492.788 901.204 493.225 899.793 493.536C899.094 493.693 898.386 493.816 897.669 493.905C897.077 493.982 896.478 494.037 895.874 494.069C895.444 494.094 895.014 494.104 894.58 494.104C892.864 494.105 891.152 493.922 889.466 493.557C889.026 493.466 888.596 493.358 888.165 493.239C886.084 492.669 884.069 491.819 882.163 490.706C881.992 490.608 881.821 490.504 881.65 490.403C881.397 490.249 881.15 490.088 880.902 489.921C881.021 489.733 881.15 489.548 881.281 489.366C882.709 487.343 884.494 485.687 886.519 484.505C888.544 483.323 890.765 482.642 893.036 482.507C895.307 482.372 897.577 482.786 899.699 483.721C901.821 484.657 903.746 486.093 905.35 487.936C905.906 488.574 906.422 489.258 906.894 489.98C907.019 490.169 907.138 490.361 907.254 490.556Z" fill="#C09AEC"/>
<path d="M895.189 475.23C902.59 475.23 908.589 468.371 908.589 459.91C908.589 451.448 902.59 444.589 895.189 444.589C887.788 444.589 881.789 451.448 881.789 459.91C881.789 468.371 887.788 475.23 895.189 475.23Z" fill="#2F2E41"/>
<path d="M898.753 475.251C903.586 472.231 905.363 465.303 902.721 459.777C900.079 454.251 894.019 452.221 889.186 455.241C884.353 458.262 882.576 465.19 885.218 470.715C887.86 476.241 893.92 478.272 898.753 475.251Z" fill="#A0616A"/>
<path d="M904.449 458.074C902.17 459.87 899.465 460.826 896.697 460.813C897.684 461.596 898.808 462.125 899.992 462.363C896.311 463.265 892.508 463.29 888.819 462.435C887.999 462.284 887.208 461.974 886.48 461.516C886.118 461.285 885.802 460.968 885.553 460.588C885.304 460.208 885.128 459.772 885.037 459.309C884.792 457.708 885.883 456.253 887.017 455.273C888.753 453.795 890.755 452.777 892.877 452.292C895 451.807 897.19 451.868 899.29 452.469C900.661 452.874 902.034 453.559 902.925 454.818C903.815 456.076 904.079 458.017 903.231 459.313L904.449 458.074Z" fill="#2F2E41"/>
<path d="M894.58 431.302C888.59 431.301 882.765 433.539 877.991 437.675C873.216 441.811 869.756 447.618 868.137 454.212C866.518 460.805 866.829 467.823 869.022 474.195C871.215 480.568 875.171 485.946 880.286 489.509L880.463 489.628C880.61 489.729 880.756 489.827 880.903 489.921C881.15 490.088 881.397 490.249 881.65 490.403C881.821 490.504 881.992 490.608 882.163 490.706C884.069 491.819 886.084 492.669 888.166 493.239C888.596 493.358 889.026 493.466 889.466 493.557C891.152 493.922 892.864 494.105 894.58 494.104C895.014 494.104 895.444 494.094 895.874 494.069C896.479 494.038 897.077 493.983 897.669 493.905C898.386 493.815 899.094 493.691 899.793 493.536C901.204 493.225 902.592 492.788 903.943 492.227C904.114 492.154 904.285 492.081 904.453 492.007C904.914 491.805 905.366 491.589 905.811 491.358C906.299 491.107 906.78 490.84 907.254 490.556C912.005 487.711 915.932 483.352 918.558 478.006C918.57 477.978 918.585 477.95 918.598 477.922C919.999 475.048 920.993 471.938 921.543 468.708C922.315 464.161 922.198 459.475 921.2 454.985C920.203 450.496 918.349 446.314 915.773 442.74C913.196 439.165 909.96 436.286 906.296 434.309C902.633 432.331 898.632 431.305 894.58 431.302H894.58ZM918.097 477.514C918.073 477.563 918.051 477.612 918.027 477.657C915.453 482.924 911.582 487.21 906.894 489.98C906.427 490.259 905.952 490.521 905.469 490.765C905.069 490.971 904.66 491.167 904.248 491.348C904.074 491.425 903.897 491.502 903.72 491.571C902.553 492.059 901.357 492.451 900.141 492.744C899.239 492.963 898.327 493.127 897.409 493.236C896.845 493.305 896.271 493.354 895.694 493.379C895.325 493.396 894.953 493.407 894.58 493.407C892.92 493.409 891.262 493.232 889.631 492.88C888.638 492.67 887.657 492.395 886.692 492.056C885.222 491.537 883.794 490.875 882.422 490.078C882.264 489.984 882.105 489.89 881.949 489.792C881.726 489.656 881.501 489.516 881.281 489.366C881.116 489.262 880.951 489.15 880.79 489.038C880.695 488.975 880.6 488.909 880.506 488.843C876.021 485.694 872.444 481.109 870.217 475.657C867.991 470.205 867.214 464.126 867.982 458.173C868.75 452.221 871.03 446.657 874.539 442.173C878.048 437.688 882.631 434.48 887.72 432.947C892.809 431.413 898.18 431.621 903.166 433.546C908.153 435.47 912.535 439.026 915.77 443.772C919.005 448.518 920.95 454.245 921.363 460.244C921.777 466.242 920.641 472.247 918.097 477.514H918.097Z" fill="#3F3D56"/>
<path d="M888.404 444.801C888.259 443.067 886.402 442 884.95 442.524C883.497 443.047 882.544 444.719 882.255 446.429C882.117 447.149 882.104 447.893 882.217 448.619C882.33 449.345 882.568 450.038 882.916 450.659C883.65 451.867 884.999 452.621 886.258 452.314C887.694 451.964 888.689 450.36 888.974 448.713C889.259 447.065 888.976 445.367 888.694 443.719L888.404 444.801Z" fill="#2F2E41"/>
<path d="M908.844 447.277C908.7 445.544 906.843 444.476 905.39 445C903.938 445.524 902.984 447.196 902.696 448.905C902.558 449.625 902.544 450.37 902.658 451.095C902.771 451.821 903.009 452.514 903.357 453.135C904.091 454.343 905.44 455.097 906.699 454.79C908.135 454.44 909.13 452.836 909.415 451.189C909.7 449.542 909.417 447.843 909.135 446.195L908.844 447.277Z" fill="#2F2E41"/>
<path d="M847.106 475.253C846.916 475.252 846.728 475.207 846.555 475.119C846.381 475.031 846.225 474.902 846.097 474.742L830.954 455.854C830.782 455.641 830.573 455.47 830.341 455.353C830.108 455.236 829.857 455.175 829.603 455.175H749.58C748.366 455.173 747.202 454.621 746.343 453.639C745.484 452.658 745.001 451.327 745 449.938V416.945C745.001 415.557 745.484 414.226 746.343 413.244C747.202 412.262 748.366 411.71 749.58 411.708H853.256C854.47 411.71 855.634 412.262 856.493 413.244C857.352 414.226 857.835 415.557 857.836 416.945V449.938C857.835 451.327 857.352 452.658 856.493 453.64C855.634 454.621 854.47 455.173 853.256 455.175H850.316C849.831 455.176 849.365 455.397 849.021 455.789C848.678 456.182 848.485 456.715 848.484 457.27V473.68C848.485 473.997 848.402 474.307 848.246 474.568C848.089 474.83 847.867 475.031 847.608 475.144C847.448 475.216 847.278 475.252 847.106 475.253Z" fill="white"/>
<path d="M847.106 475.253C846.916 475.252 846.728 475.207 846.555 475.119C846.381 475.031 846.225 474.902 846.097 474.742L830.954 455.854C830.782 455.641 830.573 455.47 830.341 455.353C830.108 455.236 829.857 455.175 829.603 455.175H749.58C748.366 455.173 747.202 454.621 746.343 453.639C745.484 452.658 745.001 451.327 745 449.938V416.945C745.001 415.557 745.484 414.226 746.343 413.244C747.202 412.262 748.366 411.71 749.58 411.708H853.256C854.47 411.71 855.634 412.262 856.493 413.244C857.352 414.226 857.835 415.557 857.836 416.945V449.938C857.835 451.327 857.352 452.658 856.493 453.64C855.634 454.621 854.47 455.173 853.256 455.175H850.316C849.831 455.176 849.365 455.397 849.021 455.789C848.678 456.182 848.485 456.715 848.484 457.27V473.68C848.485 473.997 848.402 474.307 848.246 474.568C848.089 474.83 847.867 475.031 847.608 475.144C847.448 475.216 847.278 475.252 847.106 475.253ZM749.58 412.406C748.528 412.408 747.519 412.886 746.774 413.737C746.03 414.588 745.612 415.742 745.61 416.945V449.938C745.612 451.142 746.03 452.295 746.774 453.146C747.519 453.997 748.528 454.476 749.58 454.477H829.603C829.942 454.478 830.276 454.558 830.586 454.714C830.896 454.87 831.175 455.098 831.404 455.383L846.547 474.27C846.651 474.4 846.787 474.491 846.937 474.53C847.087 474.57 847.243 474.558 847.387 474.494C847.53 474.43 847.653 474.318 847.74 474.173C847.827 474.028 847.874 473.856 847.874 473.68V457.27C847.874 456.53 848.132 455.82 848.59 455.296C849.048 454.773 849.669 454.478 850.316 454.477H853.256C854.308 454.476 855.317 453.997 856.062 453.146C856.806 452.295 857.225 451.142 857.226 449.938V416.945C857.225 415.742 856.806 414.588 856.062 413.737C855.317 412.886 854.308 412.408 853.256 412.406H749.58Z" fill="#3F3D56"/>
<path d="M756.235 426.263C758.449 426.263 760.243 424.211 760.243 421.68C760.243 419.15 758.449 417.098 756.235 417.098C754.022 417.098 752.227 419.15 752.227 421.68C752.227 424.211 754.022 426.263 756.235 426.263Z" fill="#C09AEC"/>
<path d="M848.58 447.036H754.256C753.975 447.037 753.697 446.974 753.438 446.851C753.178 446.728 752.942 446.548 752.743 446.321C752.544 446.094 752.387 445.825 752.279 445.528C752.172 445.231 752.116 444.913 752.116 444.592C752.116 444.271 752.172 443.953 752.279 443.656C752.387 443.36 752.544 443.09 752.743 442.863C752.942 442.636 753.178 442.456 753.438 442.333C753.697 442.211 753.975 442.148 754.256 442.148H848.58C849.146 442.149 849.689 442.407 850.089 442.865C850.49 443.323 850.715 443.945 850.715 444.592C850.715 445.24 850.49 445.861 850.089 446.319C849.689 446.778 849.146 447.035 848.58 447.036Z" fill="#E6E6E6"/>
<path d="M817.851 436.649H754.256C753.975 436.65 753.697 436.587 753.438 436.464C753.178 436.342 752.942 436.162 752.743 435.935C752.544 435.708 752.387 435.438 752.279 435.141C752.172 434.845 752.116 434.527 752.116 434.205C752.116 433.884 752.172 433.566 752.279 433.27C752.387 432.973 752.544 432.703 752.743 432.476C752.942 432.249 753.178 432.069 753.438 431.947C753.697 431.824 753.975 431.761 754.256 431.762H817.851C818.418 431.762 818.962 432.019 819.363 432.477C819.763 432.936 819.989 433.557 819.989 434.205C819.989 434.854 819.763 435.475 819.363 435.934C818.962 436.392 818.418 436.649 817.851 436.649Z" fill="#E6E6E6"/>
<path d="M914.392 587.142C914.133 587.028 913.911 586.827 913.755 586.566C913.598 586.304 913.515 585.995 913.516 585.678V569.268C913.516 568.712 913.322 568.18 912.979 567.787C912.635 567.394 912.17 567.173 911.684 567.173H908.745C907.53 567.171 906.366 566.619 905.507 565.637C904.648 564.655 904.165 563.324 904.164 561.936V528.943C904.165 527.554 904.648 526.223 905.507 525.242C906.366 524.26 907.53 523.708 908.745 523.706H1012.42C1013.63 523.708 1014.8 524.26 1015.66 525.242C1016.52 526.223 1017 527.554 1017 528.943V561.936C1017 563.324 1016.52 564.655 1015.66 565.637C1014.8 566.619 1013.63 567.171 1012.42 567.173H932.397C932.143 567.173 931.892 567.234 931.66 567.35C931.427 567.467 931.218 567.638 931.046 567.852L915.903 586.739C915.775 586.9 915.619 587.029 915.446 587.116C915.272 587.204 915.084 587.25 914.894 587.25C914.722 587.25 914.552 587.213 914.392 587.142Z" fill="white"/>
<path d="M914.392 587.142C914.133 587.028 913.911 586.827 913.755 586.566C913.598 586.304 913.515 585.995 913.516 585.678V569.268C913.516 568.712 913.322 568.18 912.979 567.787C912.635 567.394 912.17 567.173 911.684 567.173H908.745C907.53 567.171 906.366 566.619 905.507 565.637C904.648 564.655 904.165 563.324 904.164 561.936V528.943C904.165 527.554 904.648 526.223 905.507 525.242C906.366 524.26 907.53 523.708 908.745 523.706H1012.42C1013.63 523.708 1014.8 524.26 1015.66 525.242C1016.52 526.223 1017 527.554 1017 528.943V561.936C1017 563.324 1016.52 564.655 1015.66 565.637C1014.8 566.619 1013.63 567.171 1012.42 567.173H932.397C932.143 567.173 931.892 567.234 931.66 567.35C931.427 567.467 931.218 567.638 931.046 567.852L915.903 586.739C915.775 586.9 915.619 587.029 915.446 587.116C915.272 587.204 915.084 587.25 914.894 587.25C914.722 587.25 914.552 587.213 914.392 587.142ZM908.745 524.404C907.692 524.405 906.683 524.884 905.939 525.735C905.194 526.586 904.776 527.739 904.774 528.943V561.936C904.776 563.139 905.194 564.293 905.939 565.144C906.683 565.995 907.692 566.473 908.745 566.475H911.684C912.331 566.476 912.952 566.77 913.41 567.294C913.868 567.817 914.126 568.527 914.127 569.268V585.678C914.127 585.854 914.173 586.025 914.26 586.171C914.347 586.316 914.47 586.428 914.613 586.491C914.757 586.555 914.914 586.568 915.064 586.528C915.213 586.488 915.349 586.397 915.453 586.268L930.597 567.381C930.826 567.095 931.104 566.868 931.414 566.712C931.724 566.556 932.059 566.475 932.397 566.475H1012.42C1013.47 566.473 1014.48 565.995 1015.23 565.144C1015.97 564.293 1016.39 563.139 1016.39 561.936V528.943C1016.39 527.739 1015.97 526.586 1015.23 525.735C1014.48 524.884 1013.47 524.405 1012.42 524.404H908.745Z" fill="#3F3D56"/>
<path d="M882.077 597.358C877.826 600.471 872.9 602.168 867.852 602.26C862.804 602.352 857.834 600.835 853.498 597.878C854.26 596.255 855.227 594.768 856.366 593.465C858.124 591.445 860.264 589.913 862.621 588.986C864.978 588.06 867.489 587.763 869.962 588.119C872.435 588.475 874.803 589.475 876.885 591.041C878.968 592.607 880.708 594.698 881.973 597.153C882.007 597.219 882.044 597.289 882.077 597.358Z" fill="#C09AEC"/>
<path d="M866.594 580.674C874.044 580.674 880.083 573.769 880.083 565.252C880.083 556.734 874.044 549.83 866.594 549.83C859.144 549.83 853.105 556.734 853.105 565.252C853.105 573.769 859.144 580.674 866.594 580.674Z" fill="#2F2E41"/>
<path d="M876.632 576.13C879.291 570.567 877.503 563.593 872.638 560.552C867.773 557.512 861.672 559.556 859.013 565.118C856.353 570.681 858.141 577.655 863.007 580.696C867.872 583.736 873.972 581.692 876.632 576.13Z" fill="#FFB8B8"/>
<path d="M857.273 563.404C859.567 565.212 862.29 566.174 865.077 566.161C864.083 566.949 862.951 567.482 861.76 567.721C865.465 568.63 869.293 568.655 873.007 567.794C873.832 567.642 874.629 567.33 875.361 566.869C875.726 566.636 876.044 566.318 876.294 565.935C876.545 565.552 876.722 565.113 876.814 564.647C877.061 563.035 875.963 561.571 874.821 560.585C873.073 559.097 871.058 558.072 868.922 557.584C866.785 557.095 864.58 557.156 862.467 557.762C861.086 558.17 859.704 558.859 858.807 560.126C857.911 561.393 857.646 563.347 858.5 564.652L857.273 563.404Z" fill="#2F2E41"/>
<path d="M867.42 602.613C860.814 602.611 854.43 599.885 849.439 594.937C844.448 589.988 841.185 583.148 840.249 575.672C839.312 568.195 840.765 560.583 844.34 554.232C847.916 547.881 853.374 543.216 859.714 541.094C866.054 538.972 872.851 539.535 878.858 542.679C884.865 545.823 889.678 551.338 892.416 558.211C895.154 565.085 895.633 572.857 893.764 580.101C891.895 587.346 887.805 593.577 882.242 597.652C877.819 600.895 872.674 602.617 867.42 602.613ZM867.42 540.508C862.108 540.508 856.915 542.308 852.497 545.682C848.08 549.056 844.638 553.852 842.604 559.463C840.571 565.073 840.039 571.248 841.075 577.204C842.112 583.161 844.67 588.633 848.426 592.927C852.182 597.222 856.968 600.146 862.178 601.331C867.388 602.516 872.789 601.907 877.697 599.583C882.604 597.259 886.799 593.322 889.75 588.272C892.701 583.222 894.276 577.285 894.275 571.212C894.267 563.072 891.435 555.267 886.401 549.511C881.366 543.755 874.54 540.518 867.42 540.508Z" fill="#3F3D56"/>
<path d="M917.062 537.911C919.275 537.911 921.07 535.86 921.07 533.329C921.07 530.798 919.275 528.747 917.062 528.747C914.848 528.747 913.054 530.798 913.054 533.329C913.054 535.86 914.848 537.911 917.062 537.911Z" fill="#C09AEC"/>
<path d="M1009.41 558.685H915.083C914.802 558.685 914.524 558.622 914.264 558.5C914.005 558.377 913.769 558.197 913.57 557.97C913.371 557.743 913.213 557.474 913.106 557.177C912.998 556.88 912.943 556.562 912.943 556.241C912.943 555.92 912.998 555.602 913.106 555.305C913.213 555.008 913.371 554.739 913.57 554.512C913.769 554.285 914.005 554.105 914.264 553.982C914.524 553.86 914.802 553.797 915.083 553.797H1009.41C1009.97 553.797 1010.52 554.054 1010.92 554.513C1011.32 554.971 1011.54 555.593 1011.54 556.241C1011.54 556.889 1011.32 557.511 1010.92 557.969C1010.52 558.427 1009.97 558.685 1009.41 558.685Z" fill="#E6E6E6"/>
<path d="M978.678 548.298H915.083C914.802 548.299 914.524 548.236 914.264 548.113C914.005 547.99 913.769 547.81 913.57 547.583C913.371 547.356 913.213 547.087 913.106 546.79C912.998 546.493 912.943 546.175 912.943 545.854C912.943 545.533 912.998 545.215 913.106 544.918C913.213 544.622 913.371 544.352 913.57 544.125C913.769 543.898 914.005 543.718 914.264 543.595C914.524 543.473 914.802 543.41 915.083 543.41H978.678C979.244 543.411 979.787 543.669 980.188 544.127C980.588 544.585 980.813 545.207 980.813 545.854C980.813 546.502 980.588 547.123 980.188 547.581C979.787 548.04 979.244 548.297 978.678 548.298Z" fill="#E6E6E6"/>
<path d="M914.263 590.265C918.393 590.265 921.741 589.84 921.741 589.316C921.741 588.792 918.393 588.368 914.263 588.368C910.133 588.368 906.785 588.792 906.785 589.316C906.785 589.84 910.133 590.265 914.263 590.265Z" fill="#F2F2F2"/>
</g>
<defs>
<clipPath id="clip0_4_1664">
<rect width="1241" height="744" fill="white" transform="translate(130 378)"/>
</clipPath>
<clipPath id="clip1_4_1664">
<rect width="272" height="260" fill="white" transform="translate(745 378)"/>
</clipPath>
</defs>
</svg>
