<svg width="97" height="96" viewBox="0 0 97 96" fill="none" xmlns="http://www.w3.org/2000/svg">
<g clip-path="url(#clip0_9_129)">
<path d="M38.5 26V38H26.5V26H38.5ZM44.5 20H20.5V44H44.5V20ZM38.5 58V70H26.5V58H38.5ZM44.5 52H20.5V76H44.5V52ZM70.5 26V38H58.5V26H70.5ZM76.5 20H52.5V44H76.5V20ZM52.5 52H58.5V58H52.5V52ZM58.5 58H64.5V64H58.5V58ZM64.5 52H70.5V58H64.5V52ZM52.5 64H58.5V70H52.5V64ZM58.5 70H64.5V76H58.5V70ZM64.5 64H70.5V70H64.5V64ZM70.5 58H76.5V64H70.5V58ZM70.5 70H76.5V76H70.5V70ZM88.5 28H80.5V16H68.5V8H88.5V28ZM88.5 88V68H80.5V80H68.5V88H88.5ZM8.5 88H28.5V80H16.5V68H8.5V88ZM8.5 8V28H16.5V16H28.5V8H8.5Z" fill="black"/>
</g>
<defs>
<clipPath id="clip0_9_129">
<rect width="96" height="96" fill="white" transform="translate(0.5)"/>
</clipPath>
</defs>
</svg>
